<?xml version="1.0" standalone="no"?>
<!DOCTYPE svg PUBLIC "-//W3C//DTD SVG 20010904//EN"
 "http://www.w3.org/TR/2001/REC-SVG-20010904/DTD/svg10.dtd">
<svg version="1.0" xmlns="http://www.w3.org/2000/svg"
 width="1952.000000pt" height="1952.000000pt" viewBox="0 0 1952.000000 1952.000000"
 preserveAspectRatio="xMidYMid meet">
<metadata>
Created by potrace 1.14, written by Peter Selinger 2001-2017
</metadata>
<g transform="translate(0.000000,1952.000000) scale(0.100000,-0.100000)"
fill="#000000" stroke="none">
<path d="M0 9755 l0 -3675 933 0 932 0 0 1260 c0 839 3 1260 10 1261 5 0 339
2 740 4 402 2 753 6 780 8 28 2 82 8 120 12 39 4 84 9 100 11 44 5 96 13 125
20 14 3 36 7 50 8 14 2 34 6 45 9 11 4 36 9 55 11 19 3 51 10 70 16 19 6 46
13 60 16 14 3 28 8 31 12 6 6 29 71 35 97 1 6 28 87 59 180 31 94 58 177 60
185 1 8 13 44 25 80 12 36 24 72 26 80 2 8 24 76 49 150 26 74 48 145 51 157
2 12 10 35 16 50 7 16 13 33 13 38 1 6 5 17 8 25 10 27 91 275 93 285 1 6 9
33 19 60 9 28 18 55 19 60 2 6 6 17 9 25 3 8 13 40 22 70 9 30 19 62 22 70 4
8 7 18 8 23 2 4 3 8 5 10 1 1 3 9 5 17 1 8 33 107 70 220 37 113 87 268 111
345 25 77 52 155 60 173 7 18 14 41 14 51 0 10 3 21 7 25 4 3 8 12 9 19 7 31
15 57 37 117 13 36 24 67 24 70 0 3 35 113 78 245 43 132 79 242 80 245 0 3 7
23 14 45 16 50 18 59 19 65 0 3 6 19 12 35 7 17 14 37 16 45 6 23 54 172 66
202 5 15 9 28 8 30 -1 2 4 16 10 32 9 26 6 35 -32 95 -24 36 -67 94 -95 129
-29 36 -53 69 -53 74 0 5 -4 6 -10 3 -5 -3 -10 -1 -10 5 0 6 -42 51 -93 101
-127 124 -123 120 -212 186 -69 51 -102 73 -210 140 -11 7 -37 21 -57 30 -21
10 -38 21 -38 25 0 5 -7 8 -15 8 -8 0 -29 9 -47 20 -18 11 -41 20 -50 20 -10
0 -18 5 -18 10 0 6 -8 10 -18 10 -10 0 -22 3 -25 7 -9 8 -191 74 -247 88 -8 3
-49 13 -90 24 -41 11 -88 23 -105 26 -16 3 -41 8 -55 11 -14 3 -34 7 -45 9
-11 1 -36 5 -55 9 -90 15 -198 28 -242 29 -21 0 -38 4 -38 9 0 5 -9 4 -19 -2
-13 -6 -22 -7 -26 0 -3 6 -619 9 -1665 10 l-1660 0 0 -3675z m2775 2241 c76
-7 98 -9 193 -25 72 -12 232 -58 247 -72 5 -5 15 -9 22 -9 7 0 43 -18 79 -40
36 -22 68 -40 70 -40 10 0 102 -92 144 -145 85 -107 162 -277 176 -392 3 -20
8 -52 13 -72 14 -63 3 -424 -14 -452 -4 -5 -8 -17 -10 -27 -18 -98 -68 -217
-128 -309 -42 -64 -151 -183 -168 -183 -4 0 -14 -6 -21 -14 -23 -22 -176 -99
-203 -101 -5 0 -15 -4 -21 -7 -6 -4 -21 -9 -35 -12 -13 -3 -44 -11 -69 -17
-25 -6 -56 -13 -70 -14 -14 -2 -25 -4 -25 -5 0 -1 -11 -3 -25 -5 -14 -2 -47
-7 -75 -11 -27 -3 -262 -9 -520 -11 l-470 -4 0 983 c-1 541 3 985 6 988 10 7
818 3 904 -4z"/>
<path d="M8635 13403 c-5 -16 -9 -32 -10 -38 -2 -5 -13 -39 -25 -75 -12 -36
-23 -69 -25 -75 -1 -5 -5 -18 -9 -27 -4 -9 -9 -22 -10 -30 -2 -7 -6 -20 -9
-28 -3 -8 -24 -73 -47 -145 -23 -71 -44 -137 -47 -145 -3 -8 -8 -21 -10 -27
-1 -7 -5 -19 -6 -25 -2 -7 -7 -21 -10 -30 -4 -10 -10 -26 -14 -35 -3 -10 -7
-22 -8 -28 -2 -5 -20 -62 -41 -125 -21 -63 -39 -119 -40 -125 -1 -5 -21 -66
-44 -135 -23 -69 -43 -129 -44 -135 -2 -5 -6 -17 -9 -25 -19 -52 -182 -558
-183 -570 0 -9 -7 -26 -13 -39 -7 -12 -14 -30 -16 -39 -4 -20 -145 -454 -181
-557 -14 -38 -26 -78 -29 -87 -6 -28 -146 -461 -155 -483 -5 -11 -20 -58 -35
-105 -15 -47 -30 -94 -35 -105 -4 -11 -27 -81 -50 -155 -23 -74 -56 -173 -72
-220 -16 -47 -32 -94 -34 -105 -11 -43 -13 -50 -14 -50 -1 0 -3 -7 -5 -15 -2
-8 -14 -42 -25 -75 -12 -33 -23 -64 -24 -70 -1 -5 -38 -118 -81 -250 -44 -132
-80 -244 -81 -250 -1 -5 -9 -29 -18 -53 -8 -23 -16 -46 -17 -50 -1 -4 -5 -17
-10 -29 -4 -12 -16 -48 -25 -80 -9 -32 -20 -62 -24 -66 -4 -4 -54 86 -111 200
-57 114 -107 210 -110 213 -5 4 -20 36 -24 50 0 3 -25 52 -55 110 -30 58 -54
107 -55 110 0 3 -10 21 -23 41 -12 20 -22 43 -22 52 0 9 -5 19 -11 22 -10 7
-32 56 -29 64 1 2 -2 7 -7 10 -8 6 -35 61 -35 71 0 3 -5 12 -12 20 -7 8 -50
92 -97 185 -46 94 -87 172 -91 173 -5 2 -8 9 -8 16 0 6 -20 50 -43 96 -24 47
-115 226 -202 398 -86 172 -160 311 -162 308 -2 -2 -6 -12 -8 -23 -2 -10 -4
-19 -5 -20 -2 -2 -4 -7 -5 -13 -1 -5 -4 -12 -5 -15 -1 -3 -3 -8 -5 -12 -1 -5
-4 -15 -7 -23 -6 -16 -88 -278 -93 -295 -1 -5 -3 -13 -4 -18 0 -4 -8 -21 -16
-37 -8 -16 -16 -33 -16 -37 -3 -16 -97 -313 -186 -583 -30 -91 -56 -172 -58
-180 -2 -8 -22 -71 -45 -140 -22 -69 -59 -181 -81 -250 -23 -69 -43 -132 -46
-140 -4 -8 -7 -20 -8 -26 -4 -15 -114 -355 -122 -374 -3 -8 -7 -20 -8 -26 -2
-6 -14 -44 -28 -85 -25 -77 -101 -310 -103 -319 0 -3 -3 -12 -7 -20 -3 -8 -17
-53 -32 -100 -15 -47 -29 -92 -32 -100 -4 -8 -7 -17 -7 -20 -3 -14 -39 -127
-46 -140 -9 -19 -4 -71 8 -79 11 -8 92 -150 92 -162 0 -5 4 -9 8 -9 4 0 20
-24 35 -52 16 -29 37 -66 47 -83 11 -16 23 -37 27 -45 4 -8 37 -66 75 -129 37
-62 70 -122 73 -132 4 -11 11 -19 16 -19 5 0 9 -5 9 -11 0 -5 43 -82 95 -171
52 -88 95 -164 95 -169 0 -5 5 -9 10 -9 6 0 9 -3 8 -7 -1 -5 5 -19 14 -33 41
-64 148 -253 148 -261 0 -5 5 -9 10 -9 6 0 10 -4 10 -9 0 -5 47 -89 104 -187
l104 -179 969 -3 969 -2 29 92 c16 51 30 95 31 98 0 3 4 13 7 22 16 41 20 54
22 63 2 6 13 42 26 80 12 39 22 71 21 72 -1 2 7 23 18 48 11 25 17 45 14 45
-2 0 2 13 11 30 9 17 13 30 9 30 -4 0 -1 7 6 15 7 8 10 15 6 15 -3 0 3 22 14
49 10 27 16 52 13 55 -4 3 -1 6 5 6 7 0 12 9 12 21 0 11 5 29 11 40 6 11 12
29 14 40 2 11 15 52 28 92 14 39 59 178 101 307 43 129 80 242 83 250 3 8 7
20 8 25 2 6 39 123 85 260 96 296 89 274 90 280 0 3 7 19 15 35 8 16 15 33 15
37 0 8 17 67 27 93 4 8 5 19 4 24 -1 4 2 13 7 20 7 9 53 143 56 166 1 3 6 19
13 35 28 73 133 403 133 418 0 9 5 17 12 17 6 0 8 3 5 7 -4 3 -2 12 4 20 6 7
9 13 6 13 -4 0 6 37 22 83 37 106 161 483 166 505 3 9 21 64 41 122 19 58 37
110 38 115 1 6 4 15 8 20 3 6 9 26 13 45 4 19 12 41 17 48 6 6 8 12 4 12 -4 0
0 14 9 30 9 17 13 30 9 30 -4 0 -2 6 4 13 6 6 11 15 11 20 0 4 19 65 41 135
40 126 58 170 61 145 2 -16 2 -17 18 -73 7 -25 17 -54 21 -65 5 -11 23 -67 40
-125 17 -58 35 -113 40 -122 6 -10 10 -28 10 -41 0 -13 4 -27 9 -32 4 -6 14
-32 21 -60 7 -27 17 -56 23 -62 5 -7 7 -13 3 -13 -3 0 0 -16 8 -35 9 -20 15
-38 15 -40 0 -3 16 -58 37 -122 20 -65 37 -122 38 -128 1 -5 7 -23 13 -40 14
-39 55 -165 57 -179 1 -6 15 -49 30 -96 16 -47 29 -89 31 -95 8 -36 19 -71 24
-80 3 -5 7 -16 8 -22 7 -30 12 -48 13 -50 2 -2 3 -6 4 -10 1 -5 17 -55 35
-113 19 -58 34 -109 35 -115 1 -5 4 -14 7 -20 4 -5 10 -23 14 -40 12 -45 12
-45 15 -47 1 -2 3 -10 5 -18 2 -8 10 -35 18 -60 8 -25 29 -92 47 -150 18 -58
41 -131 52 -164 11 -32 21 -63 23 -70 1 -6 5 -18 8 -26 3 -8 22 -69 42 -135
20 -66 45 -147 56 -180 10 -33 19 -64 20 -70 1 -5 5 -17 10 -26 4 -9 10 -27
13 -40 2 -13 18 -64 34 -114 16 -49 51 -157 76 -240 26 -82 57 -181 69 -220
12 -38 22 -72 22 -75 2 -11 87 -276 95 -295 4 -11 19 -58 33 -105 40 -134 117
-384 124 -400 3 -8 5 -18 5 -22 -1 -5 436 -8 970 -8 l973 0 29 73 c16 39 34
86 41 102 12 28 26 63 30 75 5 14 27 68 35 85 25 55 123 302 123 313 0 6 4 12
9 12 4 0 8 7 8 15 0 8 8 34 19 58 39 90 44 102 47 112 3 12 301 752 314 780 5
11 46 112 91 225 75 189 96 241 119 295 31 71 80 201 80 212 0 7 5 13 10 13 6
0 10 6 10 13 0 7 23 69 51 138 28 68 99 246 159 394 60 149 114 284 121 300 7
17 13 32 14 35 1 3 6 16 12 30 6 14 47 117 92 230 45 113 88 219 95 235 12 26
24 55 31 75 5 15 18 47 25 65 34 79 72 172 74 180 1 6 10 27 19 49 9 21 17 40
17 43 0 2 10 25 22 51 11 26 21 53 21 60 0 6 4 12 9 12 4 0 8 10 8 23 0 13 4
27 10 33 5 5 20 38 34 74 13 36 30 79 37 95 7 17 13 32 14 35 1 3 6 16 12 30
6 14 25 61 42 105 17 44 36 89 41 100 5 11 41 101 80 200 39 99 78 195 87 214
8 18 16 40 17 47 1 8 8 20 14 26 7 7 12 22 12 35 0 13 4 23 8 23 5 0 9 6 9 13
0 6 11 37 25 67 21 47 38 89 43 110 1 3 10 25 21 50 10 25 18 48 16 53 -1 4 3
7 8 7 6 0 10 8 10 18 0 9 9 34 20 55 11 20 21 40 21 44 3 15 46 126 69 178 5
11 36 90 70 175 94 235 190 473 200 495 5 11 36 90 70 175 34 85 67 161 72
168 6 7 8 15 4 19 -3 3 0 16 7 27 7 12 33 71 56 131 24 61 49 124 57 140 7 17
20 47 28 68 l15 37 -983 0 -984 0 -13 -32 c-7 -18 -25 -61 -41 -96 -15 -34
-28 -65 -28 -67 0 -3 -9 -24 -19 -48 -11 -23 -54 -123 -96 -222 -42 -99 -82
-193 -90 -210 -7 -16 -23 -55 -36 -85 -12 -30 -26 -59 -31 -64 -4 -6 -8 -16
-8 -22 0 -11 -12 -39 -76 -184 -62 -138 -124 -288 -124 -299 0 -6 -4 -11 -10
-11 -5 0 -9 -3 -8 -7 2 -5 -7 -30 -19 -58 -12 -27 -22 -53 -22 -58 0 -4 -7
-20 -15 -35 -8 -15 -47 -103 -87 -197 -39 -93 -79 -188 -89 -210 -10 -22 -36
-85 -59 -140 -42 -99 -48 -114 -90 -207 -12 -26 -21 -49 -21 -52 0 -3 -11 -29
-24 -58 -25 -56 -67 -153 -87 -203 -7 -16 -12 -33 -11 -37 1 -5 -3 -8 -8 -8
-6 0 -10 -9 -10 -19 0 -11 -4 -22 -9 -25 -5 -3 -12 -17 -15 -31 -4 -14 -19
-54 -35 -88 -15 -34 -65 -150 -111 -257 -45 -107 -92 -215 -103 -240 -12 -25
-23 -54 -24 -65 -2 -10 -7 -22 -11 -25 -4 -3 -24 -45 -44 -95 -20 -49 -52
-126 -71 -170 -104 -243 -130 -302 -139 -325 -6 -14 -12 -27 -13 -30 -2 -7
-18 -43 -58 -135 -19 -44 -51 -120 -72 -170 -21 -49 -51 -119 -68 -155 -16
-36 -30 -69 -32 -75 -3 -13 -18 -50 -43 -105 -12 -25 -28 -63 -36 -84 -16 -39
-28 -42 -31 -8 -1 9 -5 24 -8 32 -7 15 -87 276 -91 295 -2 6 -11 37 -21 70
-11 33 -20 62 -20 65 -1 3 -7 23 -13 45 -6 22 -10 43 -9 46 1 3 -4 13 -12 22
-7 10 -10 17 -6 17 4 0 2 7 -5 15 -7 8 -10 15 -7 15 3 0 -3 26 -14 58 -11 31
-19 57 -19 57 1 0 -1 7 -4 15 -9 26 -59 194 -63 210 -4 17 -7 28 -15 50 -5 14
-36 116 -61 200 -5 19 -13 46 -18 60 -27 83 -81 264 -83 274 -1 6 -5 17 -9 24
-5 6 -6 12 -2 12 3 0 1 9 -5 21 -7 11 -14 30 -16 42 -2 12 -29 103 -59 202
-31 99 -58 188 -60 198 -2 9 -7 22 -10 27 -3 5 -8 20 -10 31 -3 12 -9 36 -14
53 -67 215 -82 266 -85 282 -3 11 -10 33 -16 49 -6 17 -14 39 -16 50 -3 11 -6
25 -8 30 -3 11 -42 141 -88 289 -16 54 -31 104 -32 110 -1 6 -5 17 -9 24 -5 7
-11 25 -13 40 -3 15 -32 117 -66 227 -65 215 -67 221 -69 233 0 4 -4 12 -9 17
-4 6 -11 28 -16 50 -4 22 -11 51 -17 65 -5 14 -12 34 -14 45 -2 11 -6 27 -10
35 -3 8 -8 21 -10 28 -1 6 -5 18 -6 25 -2 6 -7 19 -10 27 -6 14 -37 121 -43
145 -1 6 -14 48 -29 95 -15 47 -40 128 -55 180 -16 52 -57 188 -91 303 l-63
207 -757 0 -757 0 -7 -27z"/>
<path d="M16732 13380 c-10 -25 -23 -56 -27 -70 -4 -14 -16 -43 -25 -65 -10
-22 -41 -101 -70 -175 -29 -74 -61 -153 -70 -175 -9 -22 -22 -53 -28 -70 -6
-16 -17 -43 -23 -60 -7 -16 -13 -32 -14 -35 -1 -3 -5 -14 -10 -25 -29 -69
-167 -422 -169 -430 -1 -5 -4 -15 -8 -20 -4 -6 -18 -42 -32 -80 -15 -39 -30
-79 -35 -90 -5 -11 -20 -47 -32 -80 -13 -33 -27 -64 -31 -70 -4 -5 -8 -15 -8
-22 0 -7 -8 -32 -19 -56 -39 -89 -94 -231 -94 -244 0 -7 -4 -13 -9 -13 -4 0
-8 -6 -8 -12 0 -11 -53 -151 -81 -213 -4 -11 -18 -45 -29 -75 -11 -30 -25 -64
-30 -75 -27 -57 -90 -232 -90 -250 0 -12 4 -25 8 -31 5 -5 18 -40 31 -79 12
-38 27 -78 32 -87 5 -10 9 -22 9 -27 0 -5 5 -22 12 -38 6 -15 12 -31 12 -35 1
-3 4 -10 9 -14 4 -4 7 -18 7 -31 0 -12 4 -23 8 -23 5 0 9 -6 9 -12 1 -7 17
-58 38 -113 20 -55 37 -104 39 -110 1 -5 4 -14 7 -20 4 -5 14 -35 24 -65 9
-30 23 -69 31 -87 8 -17 14 -35 14 -39 0 -6 28 -88 68 -194 3 -8 6 -17 7 -20
3 -8 15 -41 30 -80 7 -19 21 -60 31 -90 10 -30 22 -59 26 -65 4 -5 8 -17 8
-27 0 -10 4 -26 10 -36 12 -23 137 -376 141 -400 0 -4 4 -11 9 -17 4 -5 15
-35 24 -65 10 -30 21 -64 26 -75 13 -29 91 -248 93 -260 1 -7 -273 -10 -806
-11 -464 -1 -812 -5 -817 -10 -4 -5 -25 -52 -45 -104 -20 -52 -80 -203 -132
-335 -52 -132 -129 -325 -170 -430 -41 -104 -80 -201 -86 -215 -5 -14 -11 -30
-12 -35 -2 -6 -12 -32 -24 -57 -11 -26 -21 -52 -21 -58 0 -5 -4 -18 -10 -28
-18 -32 -60 -144 -56 -151 2 -3 596 -6 1319 -6 l1315 1 13 -41 c7 -22 13 -42
14 -45 1 -3 5 -12 8 -20 4 -8 25 -67 48 -130 22 -63 54 -151 71 -195 16 -44
31 -87 33 -95 2 -8 11 -32 19 -52 9 -21 14 -38 11 -38 -3 0 2 -11 11 -24 8
-14 15 -29 15 -33 -2 -8 31 -105 49 -148 5 -11 41 -110 80 -220 39 -110 77
-216 85 -235 l13 -35 1020 -3 1021 -2 -14 42 c-9 24 -19 52 -24 63 -6 11 -42
108 -81 215 -40 107 -76 205 -81 218 -5 12 -13 32 -18 45 -5 12 -19 49 -31 82
-12 33 -26 69 -31 80 -4 11 -36 94 -70 185 -33 91 -76 203 -94 250 -65 170
-89 235 -90 240 0 3 -14 39 -30 80 -16 41 -30 77 -31 80 0 3 -4 14 -8 25 -41
104 -89 232 -91 240 -1 5 -7 24 -14 40 -6 17 -23 62 -38 100 -14 39 -30 74
-34 80 -5 5 -9 17 -9 27 0 10 -4 26 -9 36 -8 14 -37 88 -91 237 -6 17 -11 31
-11 33 1 1 -6 16 -14 32 -9 17 -13 30 -9 30 4 0 2 6 -3 13 -5 6 -20 41 -33 77
-13 36 -29 79 -36 95 -7 17 -29 75 -49 130 -20 55 -47 127 -60 160 -26 67 -37
96 -40 108 -2 4 -4 9 -5 12 -1 3 -3 8 -5 13 -1 4 -7 21 -14 37 -6 17 -23 62
-37 100 -14 39 -30 79 -35 90 -5 11 -22 58 -39 105 -17 47 -34 94 -39 105 -5
11 -19 47 -31 80 -12 33 -33 87 -46 120 -13 33 -24 65 -24 70 -1 6 -9 28 -20
50 -11 22 -19 43 -20 47 0 4 -5 19 -12 35 -6 15 -13 37 -15 47 -2 11 -7 24
-12 30 -4 6 -11 20 -14 31 -3 11 -15 45 -27 75 -35 92 -81 214 -84 225 -2 6
-7 21 -13 35 -6 14 -24 61 -41 105 -16 44 -47 123 -67 175 -21 52 -38 100 -39
105 -1 6 -19 55 -40 110 -21 55 -48 127 -61 160 -12 33 -36 96 -53 140 -16 44
-45 121 -63 170 -18 50 -36 95 -39 100 -4 6 -13 28 -19 50 -7 22 -16 49 -21
60 -6 11 -29 74 -54 140 -69 189 -216 578 -226 600 -5 11 -59 155 -120 320
-61 165 -115 309 -120 320 -13 28 -130 337 -134 355 -3 8 -11 31 -19 50 l-15
35 -20 -45z"/>
</g>
</svg>
