<svg width="400" height="400" viewBox="0 0 400 400" fill="none" xmlns="http://www.w3.org/2000/svg">
<mask id="mask0_1618_17" style="mask-type:luminance" maskUnits="userSpaceOnUse" x="0" y="0" width="400" height="400">
<path d="M0 -1.19209e-05H400V400H0V-1.19209e-05Z" fill="white"/>
</mask>
<g mask="url(#mask0_1618_17)">
<path d="M206.645 222.045L206.825 222.11C222.484 227.81 230.588 245.188 224.889 260.846C219.189 276.506 201.809 284.614 186.151 278.914L185.971 278.849L180.975 292.574L206.704 301.941L202.283 314.09C202.283 314.09 198.501 308.064 190.851 309.922C186.504 310.977 180.683 310.182 175.283 308.216L153.16 368.996C205.084 387.896 231.649 370.402 241.276 343.954C254.036 308.897 231.564 286.436 236.712 272.294C240.967 260.602 268.131 237.71 257.209 219.152C248.6 204.525 224.531 200.816 224.531 200.816L267.323 82.9424C267.323 82.9424 271.811 82.2077 273.891 77.8317L276.145 78.6517C275.903 80.1704 276.353 81.5131 277.347 81.8731C278.56 82.3144 280.115 81.1157 280.815 79.1877C281.516 77.2651 281.096 75.3477 279.884 74.9064C278.891 74.5437 277.685 75.2797 276.892 76.5971L274.621 75.7704C274.952 74.3397 275.048 72.6211 274.784 70.5677C274.555 68.7691 274.812 66.6704 275.348 64.4224L277.905 65.3517C277.667 66.8797 278.115 68.2224 279.104 68.5811C280.323 69.0251 281.879 67.8224 282.579 65.8997C283.279 63.9744 282.86 62.0544 281.641 61.6104C280.652 61.2491 279.448 61.9864 278.649 63.3051L275.916 62.3104C277.141 58.2691 279.136 53.8797 281.148 49.8331L284.275 50.9704C284.033 52.4891 284.483 53.8317 285.476 54.1917C286.692 54.6344 288.249 53.4317 288.949 51.5091C289.648 49.5851 289.229 47.6637 288.013 47.2211C287.021 46.8597 285.815 47.5997 285.021 48.9157L282.145 47.8691C285.332 41.6171 288.2 36.5344 287.543 35.5104C286.107 33.2437 283.955 32.4624 283.955 32.4624C283.955 32.4624 285.551 28.8611 277.964 26.0997L206.645 222.045Z" fill="#2075D6"/>
<path d="M222.021 259.802C226.97 246.206 220.342 231.168 207.201 225.542L205.337 230.663C215.577 235.323 220.675 247.139 216.763 257.888C212.851 268.638 201.349 274.415 190.509 271.403L188.645 276.524C202.329 280.662 217.073 273.398 222.021 259.802Z" fill="#2075D6"/>
<path d="M206.645 222.045L206.465 221.98C190.807 216.281 173.428 224.385 167.729 240.041C162.031 255.701 170.132 273.084 185.791 278.784L185.971 278.849L180.975 292.574L155.244 283.21L150.823 295.361C150.823 295.361 157.593 293.174 162.259 299.517C164.911 303.118 169.88 306.249 175.283 308.216L153.16 368.996C101.235 350.097 92.1292 319.621 101.756 293.173C114.515 258.116 146.167 255.353 151.313 241.212C155.569 229.52 149.476 194.524 169.771 187.326C185.768 181.656 206.591 194.288 206.591 194.288L249.577 76.4837C249.577 76.4837 246.613 73.0357 247.832 68.3464L245.577 67.5251C244.787 68.8451 243.579 69.5824 242.585 69.2211C241.372 68.7798 240.953 66.8611 241.655 64.9344C242.355 63.0118 243.909 61.8117 245.121 62.2531C246.115 62.6144 246.565 63.9531 246.325 65.4717L248.596 66.2984C249.263 64.9891 250.293 63.6117 251.816 62.2077C253.147 60.9771 254.3 59.2037 255.335 57.1371L252.777 56.2077C251.979 57.5304 250.772 58.2704 249.784 57.9091C248.565 57.4664 248.147 55.5451 248.847 53.6224C249.547 51.6971 251.103 50.4944 252.321 50.9384C253.311 51.2971 253.759 52.6357 253.523 54.1597L256.256 55.1557C257.916 51.2717 259.209 46.6278 260.268 42.2331L257.144 41.0957C256.351 42.4131 255.144 43.1531 254.152 42.7917C252.935 42.3491 252.516 40.4264 253.216 38.5037C253.916 36.5797 255.472 35.3771 256.689 35.8197C257.681 36.1811 258.129 37.5224 257.891 39.0424L260.767 40.0877C262.344 33.2491 263.416 27.5144 264.576 27.1504C267.133 26.3397 269.285 27.1224 269.285 27.1224C269.285 27.1224 270.377 23.3398 277.964 26.0998L206.645 222.045Z" fill="#2075D6"/>
<path d="M170.597 241.085C175.546 227.489 190.289 220.229 203.973 224.367L202.109 229.487C191.269 226.475 179.768 232.249 175.854 243C171.942 253.748 177.041 265.567 187.28 270.228L185.417 275.348C172.274 269.723 165.649 254.681 170.597 241.085Z" fill="#2075D6"/>
</g>
</svg>
