<svg width="330" height="220" fill="none" xmlns="http://www.w3.org/2000/svg"><path fill-rule="evenodd" clip-rule="evenodd" d="M69 50h192v120H69V50z" fill="#fff" stroke="#212121"/><path fill-rule="evenodd" clip-rule="evenodd" d="M147 170h113.832V56.168L147 170z" fill="#fff"/><path d="M260.832 170v.5h.5v-.5h-.5zM147 170l-.354-.354-.853.854H147v-.5zM260.832 56.168h.5v-1.207l-.854.854.354.353zm0 113.332H147v1h113.832v-1zm-.5-113.332V170h1V56.168h-1zM147.354 170.354 261.185 56.522l-.707-.707-113.832 113.831.708.708z" fill="#212121"/><mask id="a" mask-type="alpha" maskUnits="userSpaceOnUse" x="145" y="54" width="117" height="117"><path fill-rule="evenodd" clip-rule="evenodd" d="M147 170h113.832V56.168L147 170z" fill="#fff"/><path d="M260.832 170v.5h.5v-.5h-.5zM147 170l-.354-.354-.853.854H147v-.5zM260.832 56.168h.5v-1.207l-.854.854.354.353zm0 113.332H147v1h113.832v-1zm-.5-113.332V170h1V56.168h-1zM147.354 170.354 261.185 56.522l-.707-.707-113.832 113.831.708.708z" fill="#000"/></mask><g mask="url(#a)" stroke="#212121"><path d="M155.2 224.8v-160M171.2 224.8v-160M187.2 224.8v-160M203.2 224.8v-160M219.2 224.8v-160M235.2 224.8v-160M251.2 224.8v-160M123.2 160.8h160M123.2 144.8h160M123.2 128.8h160M123.2 112.8h160M123.2 96.8h160M123.2 80.8h160M123.2 64.8h160"/></g><path fill-rule="evenodd" clip-rule="evenodd" d="M261 56v-6H69v120h78L261 56z" fill="#fff"/><path d="M261 50h.5v-.5h-.5v.5zm0 6 .354.354.146-.147V56h-.5zM69 50v-.5h-.5v.5h.5zm0 120h-.5v.5h.5v-.5zm78 0v.5h.207l.147-.146L147 170zM260.5 50v6h1v-6h-1zM69 50.5h192v-1H69v1zm.5 119.5V50h-1v120h1zm77.5-.5H69v1h78v-1zm.354.854 114-114-.708-.707-114 113.999.708.708z" fill="#212121"/><path d="M77.5 61a2.5 2.5 0 1 0 0-5 2.5 2.5 0 0 0 0 5zM87.5 61a2.5 2.5 0 1 0 0-5 2.5 2.5 0 0 0 0 5zM97.5 61a2.5 2.5 0 1 0 0-5 2.5 2.5 0 0 0 0 5z" fill="#EA80FC" stroke="#212121"/><path d="M232.527 165.5C216.035 184.203 191.895 196 165 196c-30.354 0-57.199-15.027-73.5-38.047M248 107.5c0-46.116-37.384-83.5-83.5-83.5-26.684 0-50.445 12.517-65.731 32" stroke="#212121" stroke-width=".5" stroke-dasharray="3 7"/><rect x="165" y="28" width="64" height="126" rx="12" stroke="#212121"/><path fill-rule="evenodd" clip-rule="evenodd" d="M177 28c-6.627 0-12 5.373-12 12v102c0 2.804.962 5.384 2.573 7.427L229 88V40c0-6.627-5.373-12-12-12h-40z" fill="#fff"/><path d="m167.573 149.427-.392.309.348.442.398-.398-.354-.353zM229 88l.354.354.146-.147V88h-.5zm-63.5-48c0-6.351 5.149-11.5 11.5-11.5v-1c-6.904 0-12.5 5.596-12.5 12.5h1zm0 102V40h-1v102h1zm2.466 7.117A11.447 11.447 0 0 1 165.5 142h-1c0 2.92 1.002 5.608 2.681 7.736l.785-.619zm-.039.663 61.427-61.426-.708-.708-61.426 61.427.707.707zM228.5 40v48h1V40h-1zM217 28.5c6.351 0 11.5 5.149 11.5 11.5h1c0-6.904-5.596-12.5-12.5-12.5v1zm-40 0h40v-1h-40v1z" fill="#212121"/><path d="M165 40c0-6.627 5.373-12 12-12h40c6.627 0 12 5.373 12 12h-64z" fill="#EA80FC" stroke="#212121"/><path d="M165 142h64c0 6.627-5.373 12-12 12h-40c-6.627 0-12-5.373-12-12z" fill="#fff" stroke="#212121"/><path d="M189 34.063h16" stroke="#212121"/><path d="M218.61 130.5c4.711-8.611 7.39-18.492 7.39-29 0-15.576-5.886-29.777-15.555-40.5M165 161c1.854 0 3.689-.084 5.5-.249 20.084-1.825 37.31-13.548 46.759-30.251" stroke="#212121" stroke-width=".5" stroke-dasharray="3 7"/><path d="M171 164a3.5 3.5 0 1 0 0-7 3.5 3.5 0 0 0 0 7zM235 164a3.5 3.5 0 1 0 0-7 3.5 3.5 0 0 0 0 7zM251.5 116.5a3.5 3.5 0 1 0 0-7 3.5 3.5 0 0 0 0 7z" fill="#A249FF" stroke="#212121"/><path d="M219 132.5a3.5 3.5 0 1 0 0-7 3.5 3.5 0 0 0 0 7z" fill="#EA80FC" stroke="#212121"/><g clip-path="url(#b)" stroke="#212121"><path d="m198.905 104.49-3.737-10.462 4.208-10.64 12.901 34.256h-8.965l-2.207-6.142-.119-.331H188.389l2.378-6.013H199.144l-.239-.668z" fill="#212121"/><path d="m146.638 96.024 4.82 9.559.546 1.082.376-1.153 7.499-23.012h6.693l6.981 23.003.399 1.314.539-1.263 9.84-23.054h8.59l-14.17 35.144h-8.828l-6.448-20.595-.466-1.488-.486 1.481-6.766 20.602h-8.858l-4.675-8.023 4.414-13.597z" fill="#6600ED"/><path d="M126.171 105.237h-.5v12.407H117.5V82.5h14.462c4.156 0 7.234 1.191 9.322 3.502l.001.001c.348.383.663.786.944 1.21l-4.228 13.024-1.456 4.485c-1.294.341-2.766.515-4.423.515h-5.951zm-.5-6.513v.5h3.939c2.271 0 3.991-.48 4.97-1.604.859-.974 1.262-2.266 1.262-3.819 0-1.56-.466-2.859-1.439-3.838-1.004-1.01-2.643-1.45-4.768-1.45h-3.964v10.21z" fill="#212121"/></g><defs><clipPath id="b"><path fill="#fff" transform="translate(117 82)" d="M0 0h96v36.144H0z"/></clipPath></defs></svg>