<svg width="467" height="334" viewBox="0 0 467 334" fill="none" xmlns="http://www.w3.org/2000/svg">
<path id="r2" d="M415.381 49.0673C413.91 43.622 412.523 38.198 411.221 32.7947C410.537 30.2998 408.72 27.9346 405.769 25.6979C384.167 7.04054 363.988 3.39524 345.235 14.7609C343.948 15.7191 343.415 17.6584 343.639 20.5807C344.459 27.4452 345.146 32.8097 345.699 36.6737" stroke="black" stroke-width="3" stroke-miterlimit="22.9256"/>
<path id="r1" d="M407.604 46.5317C407.231 44.1087 406.932 41.7017 406.707 39.3104C406.528 38.1995 405.28 37.0495 402.964 35.86C386.422 26.1869 368.482 22.9759 349.145 26.2264C347.786 26.5248 346.945 27.3003 346.622 28.5537C346.14 31.5226 345.804 33.8465 345.616 35.5252" stroke="black" stroke-width="3" stroke-miterlimit="22.9256"/>
<path id="l2" d="M52 49.0673C53.4712 43.622 54.858 38.198 56.1607 32.7947C56.8439 30.2998 58.6612 27.9346 61.6119 25.6979C83.2145 7.04054 103.393 3.39524 122.146 14.7609C123.433 15.7191 123.966 17.6584 123.743 20.5807C122.922 27.4452 122.235 32.8097 121.682 36.6737" stroke="black" stroke-width="3" stroke-miterlimit="22.9256"/>
<path id="l1" d="M58.3661 46.5317C58.7389 44.1087 59.0377 41.7017 59.2628 39.3104C59.442 38.1995 60.6899 37.0495 63.0057 35.86C79.5478 26.1869 97.488 22.9759 116.825 26.2264C118.184 26.5248 119.025 27.3003 119.347 28.5537C119.83 31.5226 120.166 33.8465 120.354 35.5252" stroke="black" stroke-width="3" stroke-miterlimit="22.9256"/>
<path fill-rule="evenodd" clip-rule="evenodd" d="M98.482 259.388C93.01 273.109 88.096 285.461 83.7395 296.443C79.5678 308.226 74.6633 318.886 69.0264 328.423C66.9378 331.349 64.9903 332.239 63.1833 331.092C56.7538 329.792 48.7682 328.392 39.2276 326.893C33.1553 327.866 27.026 325.001 20.8386 318.297C9.2076 304.612 2.9578 284.334 2.0901 257.463C1.1553 218.251 7.4946 173.424 21.1077 122.98C27.3293 100.495 36.931 76.3326 49.913 50.4945C50.4889 49.0796 51.6061 48.185 53.2649 47.81C77.3069 41.6695 99.733 37.5688 120.542 35.5067C122.757 35.2865 124.688 35.672 126.334 36.6627C133.399 34.8913 140.777 33.7905 148.468 33.36C203.489 26.9781 260.253 26.9347 318.761 33.23C325.983 33.8202 333.296 34.9483 340.699 36.6151C342.36 35.961 344.258 35.5811 346.395 35.4756C356.291 36.2891 368.507 38.0793 383.045 40.8462C396.054 43.6816 406.632 46.2204 414.78 48.4624C415.842 48.7528 416.71 49.6534 417.383 51.1637C435.433 86.1262 449.104 128.244 458.395 177.518C463.676 208.149 465.629 233.276 464.254 252.899C462.911 280.096 457.79 300.754 448.891 314.872C443.373 321.353 438.165 325.41 433.269 327.046C431.443 327.433 429.436 327.39 427.247 326.915C418.865 328.564 411.01 329.942 403.682 331.049C402.234 332.109 400.65 331.719 398.93 329.877C394.675 324.017 390.747 316.672 387.148 307.841C382.034 294.746 375.645 277.945 367.978 257.439C363.635 246.91 359.273 239.326 354.894 234.687C348.748 228.376 341.609 224.579 333.477 223.295C330.683 222.979 327.732 222.762 324.625 222.643C315.81 224.793 307.304 225.639 299.106 225.182C251.999 224.929 208.785 224.842 169.467 224.922C159.333 225.712 151.109 225.147 144.796 223.229C140.061 222.389 134.832 222.693 129.108 224.14C120.98 226.672 114.177 231.542 108.701 238.753C105.061 243.519 101.654 250.398 98.482 259.388Z" fill="white" stroke="black" stroke-width="3" stroke-miterlimit="22.9256"/>
<path id="select" d="M129.453 56.8346C128.793 53.8832 125.969 51.8903 123.144 52.3834C120.32 52.8765 118.565 55.6688 119.225 58.6202L121.366 68.1908C122.026 71.1422 124.85 73.1351 127.675 72.642C130.499 72.1489 132.254 69.3566 131.594 66.4052L129.453 56.8346Z" stroke="black" stroke-width="3" stroke-miterlimit="22.9256"/>
<path id="start" d="M337.446 56.5314C338.106 53.58 340.931 51.5871 343.755 52.0802C346.58 52.5733 348.334 55.3656 347.674 58.317L345.534 67.8876C344.874 70.839 342.049 72.8319 339.225 72.3388C336.4 71.8457 334.646 69.0534 335.306 66.102L337.446 56.5314Z" stroke="black" stroke-width="3" stroke-miterlimit="22.9256"/>
<path id="touchPanel" d="M150.132 33.1689C142.046 34.2189 139.271 40.2004 141.805 51.1126C144.235 63.5425 147.534 79.2526 151.7 98.2423C155 117.994 163.94 128.106 178.52 128.577C201.347 128.403 221.137 128.403 237.888 128.577C254.64 128.403 265.011 128.403 287.838 128.577C302.418 128.106 311.358 117.994 314.659 98.2423C318.825 79.2526 322.123 63.5425 324.553 51.1126C327.088 40.2004 324.226 34.0023 316.141 32.9522" stroke="black" stroke-width="3" stroke-miterlimit="22.9256"/>
<path id="buttonDown" d="M377.462 162.832C385.929 162.832 392.793 155.968 392.793 147.501C392.793 139.035 385.929 132.171 377.462 132.171C368.995 132.171 362.131 139.035 362.131 147.501C362.131 155.968 368.995 162.832 377.462 162.832Z" stroke="black" stroke-width="3" stroke-miterlimit="22.9256"/>
<path id="buttonUp" d="M377.462 94.8711C385.929 94.8711 392.793 88.0074 392.793 79.5405C392.793 71.0737 385.929 64.2099 377.462 64.2099C368.995 64.2099 362.131 71.0737 362.131 79.5405C362.131 88.0074 368.995 94.8711 377.462 94.8711Z" stroke="black" stroke-width="3" stroke-miterlimit="22.9256"/>
<path id="buttonLeft" d="M343.416 128.461C351.883 128.461 358.747 121.597 358.747 113.131C358.747 104.664 351.883 97.7999 343.416 97.7999C334.949 97.7999 328.085 104.664 328.085 113.131C328.085 121.597 334.949 128.461 343.416 128.461Z" stroke="black" stroke-width="3" stroke-miterlimit="22.9256"/>
<path id="buttonRight" d="M411.637 128.461C420.104 128.461 426.968 121.597 426.968 113.131C426.968 104.664 420.104 97.7999 411.637 97.7999C403.17 97.7999 396.307 104.664 396.307 113.131C396.307 121.597 403.17 128.461 411.637 128.461Z" stroke="black" stroke-width="3" stroke-miterlimit="22.9256" />
<path d="M307.544 206.479C324.39 206.479 338.047 192.822 338.047 175.976C338.047 159.129 324.39 145.472 307.544 145.472C290.697 145.472 277.04 159.129 277.04 175.976C277.04 192.822 290.697 206.479 307.544 206.479Z" stroke="black" stroke-width="3" stroke-miterlimit="22.9256"/>
<path d="M132.162 191.614C140.799 206.078 159.526 210.802 173.99 202.166C188.455 193.529 193.179 174.802 184.543 160.338C175.906 145.873 157.179 141.149 142.715 149.786C128.25 158.422 123.526 177.149 132.162 191.614Z" stroke="black" stroke-width="3" stroke-miterlimit="22.9256"/>
<path d="M135.406 189.998C142.952 202.637 159.316 206.765 171.955 199.218C184.593 191.672 188.721 175.308 181.175 162.669C173.628 150.031 157.265 145.903 144.626 153.449C131.987 160.996 127.859 177.359 135.406 189.998Z" stroke="black" stroke-width="2" stroke-miterlimit="22.9256"/>
<path d="M242.158 198.603H224.321C222.901 198.603 221.75 199.754 221.75 201.174C221.75 202.594 222.901 203.745 224.321 203.745H242.158C243.578 203.745 244.73 202.594 244.73 201.174C244.73 199.754 243.578 198.603 242.158 198.603Z" stroke="black" stroke-width="2" stroke-miterlimit="22.9256"/>
<path d="M216.672 144.898C218.218 144.898 219.471 143.645 219.471 142.099C219.471 140.553 218.218 139.3 216.672 139.3C215.126 139.3 213.873 140.553 213.873 142.099C213.873 143.645 215.126 144.898 216.672 144.898Z" stroke="black" stroke-width="2" stroke-miterlimit="22.9256"/>
<path d="M224.94 144.898C226.486 144.898 227.739 143.645 227.739 142.099C227.739 140.553 226.486 139.3 224.94 139.3C223.394 139.3 222.141 140.553 222.141 142.099C222.141 143.645 223.394 144.898 224.94 144.898Z" stroke="black" stroke-width="2" stroke-miterlimit="22.9256"/>
<path d="M233.597 144.898C235.143 144.898 236.396 143.645 236.396 142.099C236.396 140.553 235.143 139.3 233.597 139.3C232.051 139.3 230.798 140.553 230.798 142.099C230.798 143.645 232.051 144.898 233.597 144.898Z" stroke="black" stroke-width="2" stroke-miterlimit="22.9256"/>
<path d="M241.735 144.898C243.28 144.898 244.534 143.645 244.534 142.099C244.534 140.553 243.28 139.3 241.735 139.3C240.189 139.3 238.935 140.553 238.935 142.099C238.935 143.645 240.189 144.898 241.735 144.898Z" stroke="black" stroke-width="2" stroke-miterlimit="22.9256"/>
<path d="M250.197 144.898C251.743 144.898 252.996 143.645 252.996 142.099C252.996 140.553 251.743 139.3 250.197 139.3C248.651 139.3 247.398 140.553 247.398 142.099C247.398 143.645 248.651 144.898 250.197 144.898Z" stroke="black" stroke-width="2" stroke-miterlimit="22.9256"/>
<path d="M220.839 152.71C222.384 152.71 223.638 151.457 223.638 149.911C223.638 148.365 222.384 147.112 220.839 147.112C219.293 147.112 218.04 148.365 218.04 149.911C218.04 151.457 219.293 152.71 220.839 152.71Z" stroke="black" stroke-width="2" stroke-miterlimit="22.9256"/>
<path d="M229.497 152.71C231.042 152.71 232.296 151.457 232.296 149.911C232.296 148.365 231.042 147.112 229.497 147.112C227.951 147.112 226.697 148.365 226.697 149.911C226.697 151.457 227.951 152.71 229.497 152.71Z" stroke="black" stroke-width="2" stroke-miterlimit="22.9256"/>
<path d="M237.633 152.71C239.179 152.71 240.432 151.457 240.432 149.911C240.432 148.365 239.179 147.112 237.633 147.112C236.087 147.112 234.834 148.365 234.834 149.911C234.834 151.457 236.087 152.71 237.633 152.71Z" stroke="black" stroke-width="2" stroke-miterlimit="22.9256"/>
<path d="M246.096 152.71C247.642 152.71 248.895 151.457 248.895 149.911C248.895 148.365 247.642 147.112 246.096 147.112C244.55 147.112 243.297 148.365 243.297 149.911C243.297 151.457 244.55 152.71 246.096 152.71Z" stroke="black" stroke-width="2" stroke-miterlimit="22.9256"/>
<path id="directionDown" fill-rule="evenodd" clip-rule="evenodd" d="M89.51 151.763C85.2418 151.698 81.212 150.899 78.7963 149.358C74.7196 146.61 76.557 138.573 77.0882 131.523C77.5945 128.184 83.5585 122.781 85.665 120.318C86.632 119.337 87.797 118.957 89.086 118.886C90.376 118.957 91.903 119.337 92.87 120.318C94.976 122.781 100.94 128.184 101.447 131.523C101.978 138.573 103.815 146.61 99.739 149.358C97.323 150.899 93.778 151.698 89.51 151.763Z" stroke="black" stroke-width="3" stroke-miterlimit="22.9256"/>
<path id="directionRight" fill-rule="evenodd" clip-rule="evenodd" d="M127.962 112.479C127.918 116.747 127.138 120.781 125.609 123.204C122.881 127.294 114.835 125.496 107.782 124.999C104.441 124.509 99.009 118.571 96.536 116.477C95.55 115.514 95.165 114.352 95.087 113.063C95.152 111.773 95.525 110.244 96.501 109.272C98.953 107.153 104.328 101.163 107.664 100.64C114.711 100.075 122.739 98.1986 125.508 102.262C127.06 104.67 127.876 108.211 127.962 112.479Z" stroke="black" stroke-width="3" stroke-miterlimit="22.9256"/>
<path id="directionLeft" fill-rule="evenodd" clip-rule="evenodd" d="M50.4309 113C50.4753 117.268 51.2549 121.302 52.7837 123.725C55.5122 127.815 63.5582 126.017 70.6108 125.52C73.9515 125.03 79.384 119.092 81.8571 116.998C82.8429 116.035 83.2283 114.873 83.3059 113.584C83.2409 112.294 82.8684 110.765 81.892 109.793C79.4396 107.675 74.0651 101.684 70.7293 101.162C63.682 100.596 55.6537 98.7196 52.8854 102.783C51.3332 105.191 50.5169 108.732 50.4309 113Z" stroke="black" stroke-width="3" stroke-miterlimit="22.9256"/>
<path id="directionUp" fill-rule="evenodd" clip-rule="evenodd" d="M89.458 74.4613C85.1904 74.5263 81.1607 75.3259 78.745 76.8662C74.6683 79.6147 76.5056 87.6519 77.0368 94.702C77.5431 98.0403 83.5072 103.444 85.6136 105.907C86.581 106.888 87.7451 107.268 89.0351 107.339C90.3241 107.268 91.852 106.888 92.819 105.907C94.925 103.444 100.889 98.0403 101.396 94.702C101.927 87.6519 103.764 79.6147 99.687 76.8662C97.272 75.3259 93.726 74.5263 89.458 74.4613Z" stroke="black" stroke-width="3" stroke-miterlimit="22.9256"/>
<path d="M39.2275 326.893C44.6873 325.043 49.546 315.801 53.8033 299.168C59.8348 278.098 68.5794 255.097 80.0374 230.165C93.1469 201.55 106.99 176.509 121.569 155.043C126.505 148.627 133.579 139.991 142.79 129.134C148.104 122.499 149.709 113.342 147.607 101.663C144.727 87.7886 141.493 71.5148 137.908 52.8414C136.014 44.6979 132.156 39.3048 126.334 36.6627" stroke="black" stroke-width="3" stroke-miterlimit="22.9256"/>
<path d="M63.1833 331.092C66.0921 328.972 67.6283 322.539 71.2706 312.814C83.6872 276.644 97.3211 242.168 112.265 229.436C120.525 222.933 131.629 221.345 141.29 222.821" stroke="black" stroke-width="0.75" stroke-miterlimit="22.9256"/>
<path id="logo" fill-rule="evenodd" clip-rule="evenodd" d="M223.545 178.332C224.866 177.872 226.569 177.422 228.704 176.754C228.726 175.929 228.726 175.289 228.704 174.183C226.839 174.741 223.682 175.614 220.404 177.144C218.44 178.195 218.429 179.274 220.371 180.383C223.502 181.841 226.685 181.77 228.687 181.067C228.687 180.383 228.704 179.52 228.704 178.576C227.353 179.224 225.644 179.429 223.902 179.358C223.087 179.224 222.669 178.698 223.545 178.332Z" stroke="black" stroke-miterlimit="22.9256"/>
<path id="logo" fill-rule="evenodd" clip-rule="evenodd" d="M243.228 178.186C240.455 179.158 238.006 179.994 235.408 180.693C235.386 181.701 235.386 182.629 235.408 183.476C238.348 182.527 242.493 181.149 246.084 179.537C248.492 178.455 248.661 177.224 246.296 176.103C242.763 174.829 238.949 174.736 235.408 176.087C235.408 176.912 235.375 178.094 235.375 178.951C236.894 178.484 238.738 177.887 240.583 177.324C242.373 176.739 245.237 177.474 243.228 178.186Z" stroke="black" stroke-miterlimit="22.9256"/>
<path id="logo" fill-rule="evenodd" clip-rule="evenodd" d="M229.693 182.561C230.901 182.988 232.624 183.472 234.339 183.916C234.37 177.015 234.381 171.276 234.372 166.697C234.343 165.946 234.698 165.566 235.169 165.583C235.827 165.659 236.142 166.118 236.113 166.958C236.102 169.507 236.102 171.649 236.113 173.385C236.38 174.366 237.853 175.058 239.506 174.118C241.404 172.707 241.702 169.007 240.597 166.583C239.911 165.225 238.816 164.379 237.017 163.653C235.067 162.891 232.73 162.232 229.819 161.449C229.734 169.803 229.803 177.115 229.693 182.561Z" stroke="black" stroke-miterlimit="22.9256"/>
<path d="M427.228 326.893C421.767 325.043 416.909 315.801 412.652 299.168C406.62 278.098 397.876 255.097 386.418 230.165C373.309 201.55 359.464 176.509 344.886 155.043C339.95 148.627 332.876 139.991 323.665 129.134C318.351 122.499 316.746 113.342 318.848 101.663C321.729 87.7886 324.962 71.5148 328.547 52.8414C330.441 44.6978 334.666 38.9805 340.699 36.6151" stroke="black" stroke-width="3" stroke-miterlimit="22.9256"/>
<path d="M403.272 331.092C400.363 328.972 398.249 322.462 394.606 312.738C382.19 276.567 368.941 242.015 353.997 229.282C345.737 222.779 334.093 220.839 324.433 222.69" stroke="black" stroke-width="0.75" stroke-miterlimit="22.9256"/>
<path fill-rule="evenodd" clip-rule="evenodd" d="M377.549 69.9126L381.774 77.3936L386 84.8749H377.549H369.099L373.324 77.3936L377.549 69.9126Z" stroke="black" stroke-width="2" stroke-miterlimit="22.9256"/>
<path d="M350.944 106.071H336.691V120.324H350.944V106.071Z" stroke="black" stroke-width="2" stroke-miterlimit="22.9256"/>
<path d="M411.871 122.207C416.959 122.207 421.084 118.083 421.084 112.995C421.084 107.907 416.959 103.782 411.871 103.782C406.783 103.782 402.658 107.907 402.658 112.995C402.658 118.083 406.783 122.207 411.871 122.207Z" stroke="black" stroke-width="2" stroke-miterlimit="22.9256"/>
<path d="M371.344 141.797L384.384 154.837" stroke="black" stroke-width="2" stroke-miterlimit="22.9256"/>
<path d="M384.037 141.797L370.997 154.837" stroke="black" stroke-width="2" stroke-miterlimit="22.9256"/>
<path id="analogLeft" d="M136.893 186.772C143.601 198.006 158.146 201.675 169.38 194.968C180.614 188.26 184.283 173.715 177.575 162.481C170.867 151.247 156.323 147.578 145.089 154.286C133.855 160.993 130.185 175.538 136.893 186.772Z" stroke="black" stroke-width="3" stroke-miterlimit="22.9256"/>
<path d="M281.849 169.173C277.894 183.352 286.183 198.053 300.362 202.007C314.541 205.962 329.242 197.674 333.197 183.494C337.151 169.315 328.863 154.615 314.684 150.66C300.504 146.705 285.804 154.994 281.849 169.173Z" stroke="black" stroke-width="2" stroke-miterlimit="22.9256"/>
<path id="analogRight" d="M285.212 168.027C281.696 180.63 289.064 193.697 301.667 197.212C314.27 200.727 327.337 193.36 330.852 180.757C334.367 168.154 327 155.087 314.397 151.572C301.793 148.057 288.727 155.424 285.212 168.027Z" stroke="black" stroke-width="3" stroke-miterlimit="22.9256"/>
</svg>
