<svg width="28" height="26" viewBox="0 0 28 26" fill="none" xmlns="http://www.w3.org/2000/svg">
<rect width="28" height="26" rx="3" fill="#DFE3E6"/>
<path d="M10.089 20.6824H17.7198C19.1102 20.6824 19.8088 19.9905 19.8088 18.62V11.9805C19.8088 10.61 19.1102 9.91814 17.7198 9.91814H15.8636V10.9892H17.6998C18.3584 10.9892 18.7376 11.3485 18.7376 12.0404V18.5602C18.7376 19.252 18.3584 19.6113 17.6998 19.6113H10.1023C9.43701 19.6113 9.07111 19.252 9.07111 18.5602V12.0404C9.07111 11.3485 9.43701 10.9892 10.1023 10.9892H11.9451V9.91814H10.089C8.69855 9.91814 8 10.61 8 11.9805V18.62C8 19.9905 8.69855 20.6824 10.089 20.6824ZM13.901 15.4732C14.1871 15.4732 14.4333 15.2338 14.4333 14.9543V8.12188L14.3934 7.12396L14.8391 7.59631L15.8503 8.67406C15.9435 8.78051 16.0765 8.83373 16.2096 8.83373C16.4824 8.83373 16.6952 8.63415 16.6952 8.36138C16.6952 8.22167 16.6354 8.11523 16.5356 8.01544L14.2869 5.84662C14.1539 5.71356 14.0408 5.66699 13.901 5.66699C13.768 5.66699 13.6549 5.71356 13.5152 5.84662L11.2665 8.01544C11.1667 8.11523 11.1135 8.22167 11.1135 8.36138C11.1135 8.63415 11.3131 8.83373 11.5925 8.83373C11.7189 8.83373 11.8653 8.78051 11.9584 8.67406L12.963 7.59631L13.4154 7.12396L13.3755 8.12188V14.9543C13.3755 15.2338 13.615 15.4732 13.901 15.4732Z" fill="#007AFF"/>
</svg>
