<svg width="163" height="26" viewBox="0 0 163 26" fill="none" xmlns="http://www.w3.org/2000/svg">
<rect x="0.5" y="0.5" width="162" height="25" rx="2.5" fill="#DFE3E6" stroke="#DFE3E6"/>
<path d="M151.806 7.80664C151.108 7.10937 150.124 7 148.955 7H143.63C142.481 7 141.497 7.10937 140.8 7.80664C140.103 8.50391 140 9.48145 140 10.623V15.9004C140 17.0693 140.103 18.0401 140.8 18.7373C141.497 19.4346 142.481 19.5439 143.644 19.5439H148.955C150.124 19.5439 151.108 19.4346 151.806 18.7373C152.503 18.0401 152.605 17.0693 152.605 15.9004V10.6436C152.605 9.47461 152.503 8.49707 151.806 7.80664ZM151.505 10.4521V16.0849C151.505 16.7959 151.416 17.5205 150.999 17.9375C150.589 18.3477 149.851 18.4433 149.146 18.4433H143.459C142.755 18.4433 142.017 18.3477 141.6 17.9375C141.189 17.5205 141.101 16.7959 141.101 16.0849V10.4727C141.101 9.75488 141.189 9.0166 141.6 8.60645C142.017 8.18945 142.762 8.10059 143.479 8.10059H149.146C149.851 8.10059 150.589 8.19629 150.999 8.60645C151.416 9.02343 151.505 9.74805 151.505 10.4521ZM143.138 13.2617C143.138 13.5967 143.377 13.8223 143.726 13.8223H145.735V15.8389C145.735 16.1807 145.961 16.4199 146.296 16.4199C146.638 16.4199 146.877 16.1875 146.877 15.8389V13.8223H148.894C149.235 13.8223 149.475 13.5967 149.475 13.2617C149.475 12.9199 149.235 12.6807 148.894 12.6807H146.877V10.6709C146.877 10.3223 146.638 10.083 146.296 10.083C145.961 10.083 145.735 10.3223 145.735 10.6709V12.6807H143.726C143.37 12.6807 143.138 12.9199 143.138 13.2617Z" fill="#11181C"/>
<path d="M9.17898 17H8.25568L10.9261 9.72727H11.8352L14.5057 17H13.5824L11.4091 10.8778H11.3523L9.17898 17ZM9.51989 14.1591H13.2415V14.9403H9.51989V14.1591ZM17.5845 17.1136C17.13 17.1136 16.7287 16.9988 16.3807 16.7692C16.0327 16.5372 15.7604 16.2105 15.5639 15.7891C15.3674 15.3653 15.2692 14.8646 15.2692 14.2869C15.2692 13.714 15.3674 13.2169 15.5639 12.7955C15.7604 12.3741 16.0339 12.0485 16.3842 11.8189C16.7346 11.5893 17.1394 11.4744 17.5987 11.4744C17.9538 11.4744 18.2344 11.5336 18.4403 11.652C18.6487 11.768 18.8073 11.9006 18.9162 12.0497C19.0275 12.1965 19.1139 12.3172 19.1754 12.4119H19.2464V9.72727H20.0845V17H19.2749V16.1619H19.1754C19.1139 16.2614 19.0263 16.3868 18.9126 16.5384C18.799 16.6875 18.6368 16.8213 18.4261 16.9396C18.2154 17.0556 17.9349 17.1136 17.5845 17.1136ZM17.6982 16.3608C18.0343 16.3608 18.3184 16.2732 18.5504 16.098C18.7824 15.9205 18.9588 15.6754 19.0795 15.3629C19.2003 15.0481 19.2607 14.6847 19.2607 14.2727C19.2607 13.8655 19.2015 13.5092 19.0831 13.2038C18.9647 12.8961 18.7895 12.657 18.5575 12.4865C18.3255 12.3137 18.0391 12.2273 17.6982 12.2273C17.343 12.2273 17.0471 12.3184 16.8104 12.5007C16.576 12.6806 16.3996 12.9257 16.2812 13.2358C16.1652 13.5436 16.1072 13.8892 16.1072 14.2727C16.1072 14.661 16.1664 15.0137 16.2848 15.331C16.4055 15.6458 16.5831 15.8968 16.8175 16.0838C17.0542 16.2685 17.3478 16.3608 17.6982 16.3608ZM23.7955 17.1136C23.3409 17.1136 22.9396 16.9988 22.5916 16.7692C22.2436 16.5372 21.9714 16.2105 21.7749 15.7891C21.5784 15.3653 21.4801 14.8646 21.4801 14.2869C21.4801 13.714 21.5784 13.2169 21.7749 12.7955C21.9714 12.3741 22.2448 12.0485 22.5952 11.8189C22.9455 11.5893 23.3504 11.4744 23.8097 11.4744C24.1648 11.4744 24.4453 11.5336 24.6513 11.652C24.8596 11.768 25.0182 11.9006 25.1271 12.0497C25.2384 12.1965 25.3248 12.3172 25.3864 12.4119H25.4574V9.72727H26.2955V17H25.4858V16.1619H25.3864C25.3248 16.2614 25.2372 16.3868 25.1236 16.5384C25.0099 16.6875 24.8478 16.8213 24.6371 16.9396C24.4264 17.0556 24.1458 17.1136 23.7955 17.1136ZM23.9091 16.3608C24.2453 16.3608 24.5294 16.2732 24.7614 16.098C24.9934 15.9205 25.1697 15.6754 25.2905 15.3629C25.4112 15.0481 25.4716 14.6847 25.4716 14.2727C25.4716 13.8655 25.4124 13.5092 25.294 13.2038C25.1757 12.8961 25.0005 12.657 24.7685 12.4865C24.5365 12.3137 24.25 12.2273 23.9091 12.2273C23.554 12.2273 23.258 12.3184 23.0213 12.5007C22.7869 12.6806 22.6106 12.9257 22.4922 13.2358C22.3762 13.5436 22.3182 13.8892 22.3182 14.2727C22.3182 14.661 22.3774 15.0137 22.4957 15.331C22.6165 15.6458 22.794 15.8968 23.0284 16.0838C23.2652 16.2685 23.5587 16.3608 23.9091 16.3608ZM33.1314 11.5455V12.2557H30.3047V11.5455H33.1314ZM31.1286 10.2386H31.9666V15.4375C31.9666 15.6742 32.0009 15.8518 32.0696 15.9702C32.1406 16.0862 32.2306 16.1643 32.3395 16.2045C32.4508 16.2424 32.5679 16.2614 32.6911 16.2614C32.7834 16.2614 32.8591 16.2566 32.9183 16.2472C32.9775 16.2353 33.0249 16.2259 33.0604 16.2188L33.2308 16.9716C33.174 16.9929 33.0947 17.0142 32.9929 17.0355C32.8911 17.0592 32.7621 17.071 32.6058 17.071C32.3691 17.071 32.1371 17.0201 31.9098 16.9183C31.6849 16.8165 31.4979 16.6615 31.3487 16.4531C31.2019 16.2448 31.1286 15.982 31.1286 15.6648V10.2386ZM36.5494 17.1136C36.0569 17.1136 35.6249 16.9964 35.2532 16.7621C34.8839 16.5277 34.5951 16.1998 34.3867 15.7784C34.1808 15.357 34.0778 14.8646 34.0778 14.3011C34.0778 13.733 34.1808 13.237 34.3867 12.8132C34.5951 12.3894 34.8839 12.0604 35.2532 11.826C35.6249 11.5916 36.0569 11.4744 36.5494 11.4744C37.0418 11.4744 37.4727 11.5916 37.842 11.826C38.2137 12.0604 38.5025 12.3894 38.7085 12.8132C38.9168 13.237 39.021 13.733 39.021 14.3011C39.021 14.8646 38.9168 15.357 38.7085 15.7784C38.5025 16.1998 38.2137 16.5277 37.842 16.7621C37.4727 16.9964 37.0418 17.1136 36.5494 17.1136ZM36.5494 16.3608C36.9234 16.3608 37.2312 16.2649 37.4727 16.0732C37.7141 15.8814 37.8929 15.6293 38.0089 15.3168C38.1249 15.0043 38.1829 14.6657 38.1829 14.3011C38.1829 13.9366 38.1249 13.5968 38.0089 13.282C37.8929 12.9671 37.7141 12.7126 37.4727 12.5185C37.2312 12.3243 36.9234 12.2273 36.5494 12.2273C36.1753 12.2273 35.8675 12.3243 35.6261 12.5185C35.3846 12.7126 35.2058 12.9671 35.0898 13.282C34.9738 13.5968 34.9158 13.9366 34.9158 14.3011C34.9158 14.6657 34.9738 15.0043 35.0898 15.3168C35.2058 15.6293 35.3846 15.8814 35.6261 16.0732C35.8675 16.2649 36.1753 16.3608 36.5494 16.3608ZM43.2264 17V9.72727H44.1071V12.9659H47.9849V9.72727H48.8656V17H47.9849V13.7472H44.1071V17H43.2264ZM52.731 17.1136C52.2386 17.1136 51.8065 16.9964 51.4348 16.7621C51.0655 16.5277 50.7767 16.1998 50.5684 15.7784C50.3624 15.357 50.2594 14.8646 50.2594 14.3011C50.2594 13.733 50.3624 13.237 50.5684 12.8132C50.7767 12.3894 51.0655 12.0604 51.4348 11.826C51.8065 11.5916 52.2386 11.4744 52.731 11.4744C53.2234 11.4744 53.6543 11.5916 54.0236 11.826C54.3953 12.0604 54.6841 12.3894 54.8901 12.8132C55.0984 13.237 55.2026 13.733 55.2026 14.3011C55.2026 14.8646 55.0984 15.357 54.8901 15.7784C54.6841 16.1998 54.3953 16.5277 54.0236 16.7621C53.6543 16.9964 53.2234 17.1136 52.731 17.1136ZM52.731 16.3608C53.1051 16.3608 53.4128 16.2649 53.6543 16.0732C53.8958 15.8814 54.0745 15.6293 54.1905 15.3168C54.3065 15.0043 54.3645 14.6657 54.3645 14.3011C54.3645 13.9366 54.3065 13.5968 54.1905 13.282C54.0745 12.9671 53.8958 12.7126 53.6543 12.5185C53.4128 12.3243 53.1051 12.2273 52.731 12.2273C52.3569 12.2273 52.0492 12.3243 51.8077 12.5185C51.5662 12.7126 51.3875 12.9671 51.2715 13.282C51.1555 13.5968 51.0975 13.9366 51.0975 14.3011C51.0975 14.6657 51.1555 15.0043 51.2715 15.3168C51.3875 15.6293 51.5662 15.8814 51.8077 16.0732C52.0492 16.2649 52.3569 16.3608 52.731 16.3608ZM56.4819 17V11.5455H57.2915V12.3977H57.3626C57.4762 12.1065 57.6597 11.8804 57.913 11.7195C58.1663 11.5561 58.4705 11.4744 58.8256 11.4744C59.1855 11.4744 59.485 11.5561 59.7241 11.7195C59.9656 11.8804 60.1538 12.1065 60.2887 12.3977H60.3455C60.4852 12.116 60.6947 11.8923 60.9741 11.7266C61.2534 11.5585 61.5884 11.4744 61.979 11.4744C62.4667 11.4744 62.8656 11.6271 63.1758 11.9325C63.4859 12.2356 63.641 12.7079 63.641 13.3494V17H62.8029V13.3494C62.8029 12.947 62.6928 12.6593 62.4727 12.4865C62.2525 12.3137 61.9933 12.2273 61.695 12.2273C61.3114 12.2273 61.0143 12.3433 60.8036 12.5753C60.5929 12.8049 60.4876 13.0961 60.4876 13.4489V17H59.6353V13.2642C59.6353 12.9541 59.5347 12.7043 59.3335 12.5149C59.1322 12.3232 58.873 12.2273 58.5558 12.2273C58.3379 12.2273 58.1344 12.2853 57.945 12.4013C57.7579 12.5173 57.6064 12.6783 57.4904 12.8842C57.3768 13.0878 57.32 13.3234 57.32 13.5909V17H56.4819ZM67.4602 17.1136C66.9347 17.1136 66.4813 16.9976 66.1001 16.7656C65.7214 16.5312 65.429 16.2045 65.223 15.7855C65.0194 15.3641 64.9176 14.8741 64.9176 14.3153C64.9176 13.7566 65.0194 13.2642 65.223 12.8381C65.429 12.4096 65.7154 12.0758 66.0824 11.8366C66.4517 11.5952 66.8826 11.4744 67.375 11.4744C67.6591 11.4744 67.9396 11.5218 68.2166 11.6165C68.4936 11.7112 68.7457 11.8651 68.973 12.0781C69.2003 12.2888 69.3814 12.5682 69.5163 12.9162C69.6513 13.2642 69.7188 13.6927 69.7188 14.2017V14.5568H65.5142V13.8324H68.8665C68.8665 13.5246 68.8049 13.25 68.6818 13.0085C68.5611 12.767 68.3883 12.5765 68.1634 12.4368C67.9408 12.2971 67.678 12.2273 67.375 12.2273C67.0412 12.2273 66.7524 12.3101 66.5085 12.4759C66.267 12.6392 66.0812 12.8523 65.951 13.1151C65.8208 13.3778 65.7557 13.6596 65.7557 13.9602V14.4432C65.7557 14.8551 65.8267 15.2043 65.9688 15.4908C66.1132 15.7749 66.3132 15.9915 66.5689 16.1406C66.8246 16.2874 67.1217 16.3608 67.4602 16.3608C67.6804 16.3608 67.8793 16.33 68.0568 16.2685C68.2367 16.2045 68.3918 16.1098 68.522 15.9844C68.6522 15.8565 68.7528 15.6979 68.8239 15.5085L69.6335 15.7358C69.5483 16.0104 69.4051 16.2519 69.2038 16.4602C69.0026 16.6662 68.754 16.8272 68.4581 16.9432C68.1622 17.0568 67.8295 17.1136 67.4602 17.1136ZM77.6697 12.767L76.9169 12.9801C76.8696 12.8546 76.7997 12.7327 76.7074 12.6143C76.6174 12.4936 76.4943 12.3942 76.3381 12.3161C76.1818 12.2379 75.9818 12.1989 75.7379 12.1989C75.4041 12.1989 75.1259 12.2758 74.9034 12.4297C74.6832 12.5812 74.5732 12.7741 74.5732 13.0085C74.5732 13.2169 74.6489 13.3814 74.8004 13.5021C74.9519 13.6229 75.1887 13.7235 75.5107 13.804L76.3203 14.0028C76.808 14.1212 77.1714 14.3023 77.4105 14.5462C77.6496 14.7876 77.7692 15.099 77.7692 15.4801C77.7692 15.7926 77.6792 16.072 77.4993 16.3182C77.3217 16.5644 77.0732 16.7585 76.7536 16.9006C76.4339 17.0426 76.0623 17.1136 75.6385 17.1136C75.0821 17.1136 74.6217 16.9929 74.2571 16.7514C73.8925 16.5099 73.6617 16.1572 73.5646 15.6932L74.3601 15.4943C74.4358 15.7879 74.5791 16.008 74.7898 16.1548C75.0028 16.3016 75.281 16.375 75.6243 16.375C76.0149 16.375 76.325 16.2921 76.5547 16.1264C76.7867 15.9583 76.9027 15.7571 76.9027 15.5227C76.9027 15.3333 76.8364 15.1747 76.7038 15.0469C76.5713 14.9167 76.3677 14.8196 76.093 14.7557L75.1839 14.5426C74.6844 14.4242 74.3175 14.2408 74.0831 13.9922C73.8511 13.7412 73.7351 13.4276 73.7351 13.0511C73.7351 12.7434 73.8215 12.4711 73.9943 12.2344C74.1695 11.9976 74.4074 11.8118 74.7081 11.6768C75.0111 11.5419 75.3544 11.4744 75.7379 11.4744C76.2777 11.4744 76.7015 11.5928 77.0092 11.8295C77.3194 12.0663 77.5395 12.3788 77.6697 12.767ZM81.2466 17.1136C80.7353 17.1136 80.2949 16.9929 79.9256 16.7514C79.5563 16.5099 79.2722 16.1773 79.0733 15.7536C78.8745 15.3298 78.775 14.8456 78.775 14.3011C78.775 13.7472 78.8768 13.2583 79.0804 12.8345C79.2864 12.4084 79.5729 12.0758 79.9398 11.8366C80.3091 11.5952 80.74 11.4744 81.2324 11.4744C81.6159 11.4744 81.9616 11.5455 82.2694 11.6875C82.5771 11.8295 82.8292 12.0284 83.0257 12.2841C83.2222 12.5398 83.3442 12.8381 83.3915 13.179H82.5534C82.4895 12.9304 82.3475 12.7102 82.1273 12.5185C81.9095 12.3243 81.6159 12.2273 81.2466 12.2273C80.9199 12.2273 80.6335 12.3125 80.3873 12.483C80.1434 12.651 79.9528 12.889 79.8155 13.1967C79.6806 13.5021 79.6131 13.8608 79.6131 14.2727C79.6131 14.6941 79.6794 15.0611 79.812 15.3736C79.9469 15.6861 80.1363 15.9287 80.3801 16.1016C80.6264 16.2744 80.9152 16.3608 81.2466 16.3608C81.4644 16.3608 81.6621 16.3229 81.8397 16.2472C82.0172 16.1714 82.1676 16.0625 82.2907 15.9205C82.4138 15.7784 82.5014 15.608 82.5534 15.4091H83.3915C83.3442 15.7311 83.227 16.0211 83.04 16.2791C82.8553 16.5348 82.6103 16.7384 82.3049 16.8899C82.0018 17.0391 81.6491 17.1136 81.2466 17.1136ZM84.6167 17V11.5455H85.4263V12.3693H85.4831C85.5826 12.0994 85.7625 11.8804 86.0229 11.7124C86.2833 11.5443 86.5769 11.4602 86.9036 11.4602C86.9651 11.4602 87.0421 11.4614 87.1344 11.4638C87.2267 11.4661 87.2966 11.4697 87.3439 11.4744V12.3267C87.3155 12.3196 87.2504 12.3089 87.1486 12.2947C87.0492 12.2782 86.9438 12.2699 86.8326 12.2699C86.5674 12.2699 86.3307 12.3255 86.1223 12.4368C85.9164 12.5457 85.753 12.6972 85.6323 12.8913C85.5139 13.0831 85.4547 13.3021 85.4547 13.5483V17H84.6167ZM90.4583 17.1136C89.9327 17.1136 89.4793 16.9976 89.0982 16.7656C88.7194 16.5312 88.427 16.2045 88.2211 15.7855C88.0175 15.3641 87.9157 14.8741 87.9157 14.3153C87.9157 13.7566 88.0175 13.2642 88.2211 12.8381C88.427 12.4096 88.7135 12.0758 89.0804 11.8366C89.4498 11.5952 89.8806 11.4744 90.373 11.4744C90.6571 11.4744 90.9377 11.5218 91.2147 11.6165C91.4917 11.7112 91.7438 11.8651 91.9711 12.0781C92.1983 12.2888 92.3794 12.5682 92.5144 12.9162C92.6493 13.2642 92.7168 13.6927 92.7168 14.2017V14.5568H88.5123V13.8324H91.8645C91.8645 13.5246 91.803 13.25 91.6799 13.0085C91.5591 12.767 91.3863 12.5765 91.1614 12.4368C90.9389 12.2971 90.6761 12.2273 90.373 12.2273C90.0392 12.2273 89.7504 12.3101 89.5066 12.4759C89.2651 12.6392 89.0792 12.8523 88.949 13.1151C88.8188 13.3778 88.7537 13.6596 88.7537 13.9602V14.4432C88.7537 14.8551 88.8248 15.2043 88.9668 15.4908C89.1112 15.7749 89.3113 15.9915 89.5669 16.1406C89.8226 16.2874 90.1197 16.3608 90.4583 16.3608C90.6784 16.3608 90.8773 16.33 91.0549 16.2685C91.2348 16.2045 91.3899 16.1098 91.5201 15.9844C91.6503 15.8565 91.7509 15.6979 91.8219 15.5085L92.6316 15.7358C92.5463 16.0104 92.4031 16.2519 92.2019 16.4602C92.0007 16.6662 91.7521 16.8272 91.4561 16.9432C91.1602 17.0568 90.8276 17.1136 90.4583 17.1136ZM96.2786 17.1136C95.753 17.1136 95.2997 16.9976 94.9185 16.7656C94.5397 16.5312 94.2473 16.2045 94.0414 15.7855C93.8378 15.3641 93.736 14.8741 93.736 14.3153C93.736 13.7566 93.8378 13.2642 94.0414 12.8381C94.2473 12.4096 94.5338 12.0758 94.9007 11.8366C95.2701 11.5952 95.7009 11.4744 96.1934 11.4744C96.4775 11.4744 96.758 11.5218 97.035 11.6165C97.312 11.7112 97.5641 11.8651 97.7914 12.0781C98.0186 12.2888 98.1998 12.5682 98.3347 12.9162C98.4696 13.2642 98.5371 13.6927 98.5371 14.2017V14.5568H94.3326V13.8324H97.6848C97.6848 13.5246 97.6233 13.25 97.5002 13.0085C97.3794 12.767 97.2066 12.5765 96.9817 12.4368C96.7592 12.2971 96.4964 12.2273 96.1934 12.2273C95.8596 12.2273 95.5707 12.3101 95.3269 12.4759C95.0854 12.6392 94.8996 12.8523 94.7694 13.1151C94.6391 13.3778 94.574 13.6596 94.574 13.9602V14.4432C94.574 14.8551 94.6451 15.2043 94.7871 15.4908C94.9315 15.7749 95.1316 15.9915 95.3873 16.1406C95.6429 16.2874 95.94 16.3608 96.2786 16.3608C96.4988 16.3608 96.6976 16.33 96.8752 16.2685C97.0551 16.2045 97.2102 16.1098 97.3404 15.9844C97.4706 15.8565 97.5712 15.6979 97.6422 15.5085L98.4519 15.7358C98.3667 16.0104 98.2234 16.2519 98.0222 16.4602C97.821 16.6662 97.5724 16.8272 97.2765 16.9432C96.9805 17.0568 96.6479 17.1136 96.2786 17.1136ZM100.65 13.7188V17H99.812V11.5455H100.622V12.3977H100.693C100.82 12.1207 101.015 11.8982 101.275 11.7301C101.535 11.5597 101.872 11.4744 102.284 11.4744C102.653 11.4744 102.976 11.5502 103.253 11.7017C103.53 11.8509 103.745 12.0781 103.899 12.3835C104.053 12.6866 104.13 13.0701 104.13 13.5341V17H103.292V13.5909C103.292 13.1624 103.181 12.8286 102.958 12.5895C102.736 12.348 102.43 12.2273 102.042 12.2273C101.775 12.2273 101.535 12.2853 101.325 12.4013C101.116 12.5173 100.952 12.6866 100.831 12.9091C100.71 13.1316 100.65 13.4015 100.65 13.7188Z" fill="black"/>
</svg>
