<svg width="125" height="126" viewBox="0 0 125 126" fill="none" xmlns="http://www.w3.org/2000/svg">
<path d="M10.349 55.2636C11.1768 59.4359 13.5201 69.0323 16.271 74.0391C19.7096 80.2976 18.3724 82.2534 34.8013 97.7041C47.9445 110.065 62.1192 120 62.1192 120C62.1192 120 77.0555 110.065 90.1987 97.7041C106.628 82.2534 106.101 80.4322 108.729 74.0391L62.5 56.0678H61.1672M114.651 55.2636C116.002 49.2458 116.943 41.1037 117.708 35.3146C118.472 29.5255 119.554 19.3424 120 14.9745C116.052 13.2143 103.38 8.23521 92.4911 7.15136C85.9959 6.50485 79.1187 5.39116 66.7015 5H58.2985C45.8813 5.39116 39.0041 6.50485 32.5089 7.15136C21.62 8.23521 8.94804 13.2143 5 14.9745C5.44575 19.3424 6.52827 29.5255 7.29241 35.3146L29.5613 45.3475M95.2483 50.2203C95.8195 47.4915 95.6607 47.423 96.1288 43.871C96.5969 40.319 97.2601 34.0711 97.5331 31.3911C95.1146 30.3111 87.352 27.2562 80.6816 26.5912C76.7028 26.1945 72.4899 25.5112 64.8834 25.2712H59.7359C52.1293 25.5112 47.9164 26.1945 43.9376 26.5912C37.2672 27.2562 29.5046 30.3111 27.0861 31.3911C27.3591 34.0711 28.0223 40.319 28.4904 43.871C28.9585 47.423 29.9337 53.5109 30.3628 56.1109C30.8699 58.6709 32.3054 64.5588 33.9905 67.6308C36.097 71.4707 35.2778 72.6707 45.3419 82.1506C53.3931 89.7346 62.0763 95.8305 62.0763 95.8305C62.0763 95.8305 71.2261 89.7346 79.2773 82.1506C89.3414 72.6707 88.0132 72.6356 88.9652 70.2966" stroke="url(#paint0_linear_872_1493)" stroke-width="9"/>
<defs>
<linearGradient id="paint0_linear_872_1493" x1="62.3096" y1="25.2712" x2="62.3096" y2="95.8305" gradientUnits="userSpaceOnUse">
<stop stop-color="#7688F1"/>
<stop offset="1" stop-color="#ADBAFF"/>
</linearGradient>
</defs>
</svg>
