<svg xmlns="http://www.w3.org/2000/svg" version="1.1" width="500pt" height="500pt" viewBox="0 0 500 500">
<defs>
<clipPath id="clip_0">
<path transform="matrix(1,0,0,-1,0,500)" d="M0 0H500V500H0Z"/>
</clipPath>
</defs>
<g clip-path="url(#clip_0)">
<text xml:space="preserve" transform="matrix(1 0 -0 1 0 500)" font-size="283.4646" font-family="Lato"><tspan y="-146.6294" x="-562.2979 -421.98295 -269.76243">STF</tspan></text>
<path transform="matrix(1,0,0,-1,0,500)" d="M201.4492 182.6729 172.5192 271.0399 248.0002 325.7429 323.4802 271.0399 294.8132 182.6729ZM441.5492 249.9999 441.5462 250.2729 416.3222 228.2659 355.6652 284.8789 371.5892 366.5119 404.7852 363.5399C380.6992 396.6519 346.7172 421.6899 307.3242 434.3209L320.5352 403.4119 248.0002 363.2259 175.4652 403.4109 188.6762 434.3199C149.3552 421.7129 115.3402 396.7039 91.2152 363.5389L124.6652 366.5119 140.3352 284.8789 79.6782 228.2659 54.4552 250.2729 54.4522 249.9999C54.4522 208.3729 67.5142 168.7559 91.6832 135.8159L99.1382 168.6189 181.5302 158.5089 216.6602 83.1939 187.7232 65.9809C226.6282 53.2819 269.2942 53.2569 308.2762 65.9809L279.3392 83.1939 314.4702 158.5089 396.8612 168.6189 404.3162 135.8159C428.4862 168.7559 441.5492 208.3729 441.5492 249.9999M488.0002 249.9999C488.0002 117.4509 380.5492 9.9999 248.0002 9.9999 115.4512 9.9999 8.0002 117.4509 8.0002 249.9999 8.0002 382.5489 115.4512 489.9999 248.0002 489.9999 380.5492 489.9999 488.0002 382.5489 488.0002 249.9999" fill="#ff8b00"/>
</g>
</svg>
