<svg width="24" height="24" viewBox="0 0 24 24" fill="none" xmlns="http://www.w3.org/2000/svg">
<path d="M19.5 0H4.5C2.01472 0 0 2.01472 0 4.5V19.5C0 21.9853 2.01472 24 4.5 24H19.5C21.9853 24 24 21.9853 24 19.5V4.5C24 2.01472 21.9853 0 19.5 0Z" fill="white"/>
<path d="M16.7195 14.1814L17.2972 12.7203H18.9655L18.1738 10.504L19.1639 8L22 15.5301H19.9085L19.4239 14.1814L16.7195 14.1814Z" fill="#3D3D3D"/>
<path d="M14.9351 15.5301L17.9712 8.00003H15.9584L13.8816 12.8661L12.4047 8.00004H10.8576L9.27183 12.8661L8.15353 10.6487L7.14151 13.7666L8.16901 15.5301H10.1499L11.5828 11.1662L12.9491 15.5301H14.9351Z" fill="#5A0FC8"/>
<path d="M3.91061 12.9451H5.1504C5.52595 12.9451 5.86037 12.9032 6.15365 12.8194L6.47427 11.8316L7.37037 9.07086C7.30209 8.96263 7.22414 8.86031 7.13652 8.76389C6.67642 8.25464 6.00327 8 5.11703 8H2V15.5301H3.91061V12.9451ZM5.55166 9.73237C5.73137 9.91324 5.82122 10.1553 5.82122 10.4585C5.82122 10.7641 5.74219 11.0064 5.58415 11.1855C5.41089 11.3845 5.09186 11.484 4.62709 11.484H3.91061V9.46105H4.63236C5.06552 9.46105 5.37196 9.55149 5.55166 9.73237Z" fill="#3D3D3D"/>
</svg>
