<svg width="24" height="24" viewBox="0 0 24 24" fill="none" xmlns="http://www.w3.org/2000/svg">
<g clip-path="url(#clip0_1615_17)">
<path d="M2.88459 0.0206299C1.29052 0.0206299 0.000257898 1.31322 0 2.90367C0 4.49568 1.29026 5.78801 2.88485 5.78801C4.47505 5.78801 5.76712 4.49568 5.76712 2.90367C5.76712 1.31296 4.47479 0.0206299 2.88459 0.0206299Z" fill="currentColor"/>
<path d="M5.37073 7.97575H0.396646V23.9794H5.37073V7.97575Z" fill="currentColor"/>
<path d="M18.0335 7.57782C15.6139 7.57782 13.9915 8.90445 13.3274 10.1625H13.2609V7.97576H8.49026H8.49001V23.9791H13.4597V16.0622C13.4597 13.975 13.8571 11.9533 16.4449 11.9533C18.9955 11.9533 19.0295 14.3404 19.0295 16.196V23.9788H24V15.201C24 10.8923 23.0703 7.57782 18.0335 7.57782Z" fill="currentColor"/>
</g>
</svg>
